<svg id="Layer_1" data-name="Layer 1" xmlns="http://www.w3.org/2000/svg" xmlns:xlink="http://www.w3.org/1999/xlink" viewBox="0 0 332.33 50.4"><defs><linearGradient id="linear-gradient" x1="188.93" y1="28.1" x2="330.69" y2="-2.24" gradientUnits="userSpaceOnUse"><stop offset="0" stop-color="#f90d56"/><stop offset="0.51" stop-color="#f80f55"/><stop offset="0.69" stop-color="#f61652"/><stop offset="0.82" stop-color="#f3214b"/><stop offset="0.92" stop-color="#ee3243"/><stop offset="1" stop-color="#e84539"/></linearGradient><linearGradient id="linear-gradient-2" x1="189.85" y1="32.44" x2="331.62" y2="2.1" xlink:href="#linear-gradient"/><linearGradient id="linear-gradient-3" x1="191.57" y1="40.45" x2="333.33" y2="10.11" xlink:href="#linear-gradient"/><linearGradient id="linear-gradient-4" x1="193.02" y1="47.22" x2="334.78" y2="16.88" xlink:href="#linear-gradient"/><linearGradient id="linear-gradient-5" x1="193.52" y1="49.58" x2="335.28" y2="19.24" xlink:href="#linear-gradient"/><linearGradient id="linear-gradient-6" x1="194.05" y1="52.03" x2="335.81" y2="21.69" xlink:href="#linear-gradient"/><linearGradient id="linear-gradient-7" x1="194.63" y1="54.74" x2="336.39" y2="24.41" xlink:href="#linear-gradient"/></defs><title>logo</title><circle cx="26.34" cy="25.51" r="23.76" style="fill:#191919"/><path d="M27.44,49.8A24.32,24.32,0,1,1,51.77,25.48,24.35,24.35,0,0,1,27.44,49.8Zm0-47.51A23.19,23.19,0,1,0,50.63,25.48,23.22,23.22,0,0,0,27.44,2.29Z" style="fill:#f90d56"/><path d="M26.79,50.11A24.61,24.61,0,1,1,51.4,25.51,24.63,24.63,0,0,1,26.79,50.11Zm0-47.51A22.91,22.91,0,1,0,49.7,25.51,22.93,22.93,0,0,0,26.79,2.6Z" style="fill:#f7f9e3"/><path d="M22.52,27.65l8.79,5.07A3.17,3.17,0,0,0,36.07,30V19.83a3.17,3.17,0,0,0-4.75-2.75l-8.79,5.07A3.17,3.17,0,0,0,22.52,27.65Z" style="fill:#f90d56"/><path d="M35.48,28.25,24.43,34.63a3.86,3.86,0,0,1-5.79-3.34V18.53a3.86,3.86,0,0,1,5.79-3.34l11.05,6.38A3.86,3.86,0,0,1,35.48,28.25Z" style="fill:#f7f9e3"/><path d="M35.6,29.92c.2.11.29,0,.41-.11a.24.24,0,0,0,.07-.3.75.75,0,0,1,.16-.79h-.07a3.87,3.87,0,0,1-.83.53s0,.06,0,.1C35.23,29.62,35.33,29.78,35.6,29.92Z" style="fill:#f90d56"/><path d="M28.16,26.3c.24,0,.35.11.36.34a.32.32,0,0,1-.33.31s-.12,0-.14,0,0,.08.09.11a.83.83,0,0,1,.27.46.2.2,0,0,1-.16.23l-.16,0c-.08,0-.11,0-.06.13a.32.32,0,0,1-.14.48.94.94,0,0,0-.46.44s0,0,0,0c-.22,0-.24.19-.28.36s-.15.08-.24.09a.29.29,0,0,1-.3-.33s0-.09,0-.1-.16-.12-.24-.18a.31.31,0,0,1-.11-.35.45.45,0,0,1,.41-.22c.13,0,.26,0,.35.17a.15.15,0,0,0,.2,0c.08,0,0-.1,0-.15a.26.26,0,0,1,.06-.28c.08-.07.12-.18.23-.21s.05-.09,0-.14-.13-.23,0-.39a.18.18,0,0,0,0-.21c0-.1.07-.2.17-.23a.25.25,0,0,0,.19-.22C27.86,26.36,28,26.3,28.16,26.3Z" style="fill:#f90d56"/><path d="M15.17,33.73a.28.28,0,0,0-.32.13c-.1.13-.26.23-.29.41a.29.29,0,0,0,0,.24.23.23,0,0,1,0,.22.38.38,0,0,1-.3.28c-.18,0-.36.07-.49-.15s-.17-.38,0-.46a3.45,3.45,0,0,0,.48-.39c.18-.14.39-.26.59-.39a1.12,1.12,0,0,1,.25-.09.2.2,0,0,1,.24,0,.09.09,0,0,1,0,.12C15.33,33.77,15.24,33.72,15.17,33.73Z" style="fill:#f90d56"/><path d="M23,42.85c.11-.12.14-.32.33-.37a.78.78,0,0,1,.6.08c.12.07.12.34,0,.5a.41.41,0,0,1-.48.26" style="fill:#f90d56"/><path d="M29.93,25.88a.4.4,0,0,1,.29.11,1.32,1.32,0,0,0,.27.18c.13.06.16.16.06.27a1.22,1.22,0,0,1-.48.29.47.47,0,0,1-.5-.12.33.33,0,0,1-.08-.47A.49.49,0,0,1,29.93,25.88Z" style="fill:#f90d56"/><path d="M27.84,32.34a.58.58,0,0,1-.51-.38.35.35,0,0,1,.4-.42.6.6,0,0,1,.44.25.23.23,0,0,1,0,.34C28,32.22,28,32.37,27.84,32.34Z" style="fill:#f90d56"/><path d="M29,40.63c-.25,0-.29,0-.27-.28a.94.94,0,0,1,.08-.29.21.21,0,0,1,.34-.09c.12.08.14.21.19.32a.07.07,0,0,1-.05.1.12.12,0,0,0-.09.1C29.22,40.63,29.13,40.65,29,40.63Z" style="fill:#f90d56"/><path d="M23.41,36.38a.32.32,0,0,1-.34-.27.33.33,0,0,1,.33-.35.4.4,0,0,1,.34.3A.36.36,0,0,1,23.41,36.38Z" style="fill:#f90d56"/><path d="M13.12,38.72a.22.22,0,0,1,.19.17.42.42,0,0,1-.28.41.34.34,0,0,1-.35-.12c-.07-.1,0-.2,0-.28A.48.48,0,0,1,13.12,38.72Z" style="fill:#f90d56"/><path d="M30.63,27.64a.36.36,0,0,1-.4,0c-.14-.12-.16-.21-.06-.34a.3.3,0,0,1,.4-.09c.12.08.14.23,0,.29S30.46,27.58,30.63,27.64Z" style="fill:#f90d56"/><path d="M17.42,36.74a.23.23,0,1,1-.46,0,.18.18,0,0,1,.18-.2C17.32,36.52,17.42,36.62,17.42,36.74Z" style="fill:#f90d56"/><path d="M28.6,36.3c-.09,0-.16-.14-.24-.23a.1.1,0,0,1,0-.13.21.21,0,0,1,.23,0,.45.45,0,0,1,.19.18C28.84,36.24,28.8,36.31,28.6,36.3Z" style="fill:#f90d56"/><path d="M28,48.34c.11,0,.33.15.3.21s-.21.13-.33.16-.16,0-.15-.14S27.89,48.34,28,48.34Z" style="fill:#f90d56"/><path d="M15.58,26.6a1.38,1.38,0,0,1,.49.22.12.12,0,0,1,0,.16c0,.06-.11,0-.15,0a1,1,0,0,0-.33-.15c-.06,0-.09-.07-.12-.13s-.06-.06,0-.1S15.55,26.59,15.58,26.6Z" style="fill:#f90d56"/><path d="M28.67,35.79a.85.85,0,0,1-.37-.34.11.11,0,0,1,.06-.12.11.11,0,0,1,.15,0l.26.29a.11.11,0,0,1,0,.12S28.7,35.79,28.67,35.79Z" style="fill:#f90d56"/><path d="M28.72,41.53c-.07,0-.13,0-.14-.1s.14-.29.21-.29a.25.25,0,0,1,.2.24C29,41.54,28.82,41.5,28.72,41.53Z" style="fill:#f90d56"/><path d="M17.48,36.49c-.11,0-.17,0-.17-.13s0-.14.13-.14a.15.15,0,0,1,.17.15C17.62,36.48,17.54,36.48,17.48,36.49Z" style="fill:#f90d56"/><path d="M27,27.2c.11,0,.15.05.16.14a.12.12,0,0,1-.13.13.13.13,0,0,1-.16-.14C26.83,27.24,26.87,27.19,27,27.2Z" style="fill:#f90d56"/><path d="M27,48c.08,0,.13,0,.12.1s0,.17-.14.18-.11,0-.1-.09S26.89,48,27,48Z" style="fill:#f90d56"/><path d="M28.78,27.23c0,.08-.07.09-.13.08s-.11,0-.09-.09,0-.15.11-.14S28.76,27.16,28.78,27.23Z" style="fill:#f90d56"/><path d="M29.64,48.08s0,.12-.09.11a.13.13,0,0,1-.11-.14c0-.08.06-.1.12-.09S29.65,48,29.64,48.08Z" style="fill:#f90d56"/><path d="M23.61,23.16c-.06,0-.12,0-.11-.06s.07-.08.14-.08.11,0,.1.07S23.65,23.13,23.61,23.16Z" style="fill:#f90d56"/><path d="M22.45,37.22c0,.06,0,.11-.11.11a.09.09,0,0,1-.11-.09c0-.08,0-.1.11-.1A.08.08,0,0,1,22.45,37.22Z" style="fill:#f90d56"/><path d="M22,38.61s0,.05,0,.08,0,.12-.13.09-.08-.06-.07-.11.06,0,.11,0,.08,0,.11,0Z" style="fill:#f90d56"/><path d="M29.24,35.29a.12.12,0,0,1-.08-.13s0-.11.07-.1.08.07.07.12S29.31,35.28,29.24,35.29Z" style="fill:#f90d56"/><path d="M28.14,36.18s0-.09,0-.1a.05.05,0,0,1,.06,0c0,.07,0,.1-.07.13h0a.05.05,0,0,0,0-.07Z" style="fill:#f90d56"/><path d="M27.58,30.93l0,0h0v0Z" style="fill:#f90d56"/><path d="M21.69,23.52h-.06a.22.22,0,0,0-.24.18.26.26,0,0,0,.13.27c.09.06.19,0,.25-.09l0,0c0-.07.12-.13.07-.23S21.75,23.53,21.69,23.52Z" style="fill:#f90d56"/><path d="M25,22.76c-.17,0-.24.06-.24.23s.11.27.32.27a.33.33,0,0,0,.35-.28C25.42,22.85,25.23,22.78,25,22.76Zm.61.74c.14,0,.26,0,.26-.15s-.18-.26-.22-.24-.19.09-.18.23S25.54,23.51,25.61,23.5Z" style="fill:#f90d56"/><path d="M21.85,28.14a.66.66,0,0,1-.22.43.29.29,0,0,1-.41-.06.37.37,0,0,1,0-.5.53.53,0,0,1,.36-.14C21.83,27.88,21.85,27.89,21.85,28.14Z" style="fill:#f90d56"/><path d="M18.53,33.12c0,.2-.07.26-.23.25a.15.15,0,0,1-.16-.18c0-.06.2-.3.23-.28S18.56,33,18.53,33.12Z" style="fill:#f90d56"/><path d="M23.7,33.62a.15.15,0,0,1-.15-.16c0-.11.12-.19.27-.19s.12,0,.12.11A.24.24,0,0,1,23.7,33.62Z" style="fill:#f90d56"/><path d="M19.51,29.14a1,1,0,0,1,0,.46s0,.09-.08.08-.06-.06-.06-.1A1.51,1.51,0,0,1,19.51,29.14Z" style="fill:#f90d56"/><path d="M24.68,34.2c0,.07,0,.09-.09.08a.22.22,0,0,1-.21-.17c0-.06.06-.07.11-.06S24.67,34.08,24.68,34.2Z" style="fill:#f90d56"/><path d="M22.36,22.43a.43.43,0,0,1-.14.39s-.06,0-.07,0a.12.12,0,0,1,0-.16C22.28,22.61,22.31,22.54,22.36,22.43Z" style="fill:#f90d56"/><path d="M24.25,33.64a.11.11,0,0,1,.08.12s0,.07,0,.07a.1.1,0,0,1-.1-.1A.07.07,0,0,1,24.25,33.64Z" style="fill:#f90d56"/><path d="M23.24,22.5a.05.05,0,0,1-.06.06s0,0,0-.05a.06.06,0,0,1,.06-.07S23.24,22.45,23.24,22.5Z" style="fill:#f90d56"/><path d="M19.82,27.69s0,0-.05-.05a0,0,0,0,1,0-.06s.08,0,.08.05S19.85,27.67,19.82,27.69Z" style="fill:#f90d56"/><path d="M28.13,36.17a.05.05,0,0,1,0,.07S28.1,36.22,28.13,36.17Z" style="fill:#f90d56"/><path d="M20.92,31.83s0-.05,0-.07a.21.21,0,0,1,0-.27.19.19,0,0,1,.24,0,.24.24,0,0,1,0,.28c-.06.08-.06.11,0,.19a.39.39,0,0,1,0,.39.33.33,0,0,1-.38.21.37.37,0,0,1-.31-.24.24.24,0,0,1,.07-.29C20.69,31.95,20.77,31.82,20.92,31.83Z" style="fill:#f90d56"/><path d="M19.05,32.34c0-.1.05-.21.18-.23s.2.15.2.24-.16.23-.22.22S19.07,32.45,19.05,32.34Z" style="fill:#f90d56"/><path d="M22.77,32.09c0,.1-.18.25-.27.23s-.06,0,0-.08a.29.29,0,0,1,.23-.19S22.76,32.06,22.77,32.09Z" style="fill:#f90d56"/><path d="M20.47,31.77c0,.09,0,.15-.11.16s-.09,0-.08-.09,0-.18.11-.19S20.46,31.72,20.47,31.77Z" style="fill:#f90d56"/><path d="M21.69,23.52c.07,0,.15,0,.2.08s0,.16-.07.23l0,0c-.06.1-.16.16-.25.09a.26.26,0,0,1-.13-.27.22.22,0,0,1,.24-.18Z" style="fill:#f90d56"/><path d="M25,22.76c.23,0,.43.09.43.22a.33.33,0,0,1-.35.28c-.2,0-.32-.1-.32-.27S24.82,22.76,25,22.76Z" style="fill:#f90d56"/><path d="M25.61,23.5c-.07,0-.14,0-.15-.15s.1-.18.18-.23.22.19.22.24S25.75,23.5,25.61,23.5Z" style="fill:#f90d56"/><path d="M22.75,35.55a.09.09,0,0,0,0,.12c.1.12.06.22,0,.32s-.05.16.06.21l.05,0a.2.2,0,0,0,.08-.27c-.15-.33,0-.28.1-.34l-.16-.07A.06.06,0,0,0,22.75,35.55Z" style="fill:#f90d56"/><path d="M22.45,34.49s.18-1.12.16-1.22a2.22,2.22,0,0,1,0-.27c-.09.17-.19.33-.26.51s-.05,0-.08.07-.1,0-.08.09.07.06.11.08.18-.07.17.09.05.15,0,.23a.48.48,0,0,0-.06.13.81.81,0,0,0,0,.47l0,0A.43.43,0,0,0,22.45,34.49Z" style="fill:#f90d56"/><path d="M19.85,32.64a.07.07,0,0,1,.07,0c.05,0,.05.06.06.1s0,.15.09.15.06-.08.07-.14a.12.12,0,0,1,.11-.12s.1,0,.13,0a.13.13,0,0,1,0,.17c-.11.07-.06.23-.19.3s0,.11.06.11a.29.29,0,0,1,.31.28c0,.07.08.06.14.05s.06,0,.07,0,0-.08,0-.11-.15-.16,0-.35.07-.13.11-.1.19,0,.25.15a.32.32,0,0,1-.13.45.86.86,0,0,0,.5,0c.13-.05.24-.07.3.1,0,0,.05-.09.09-.11a.56.56,0,0,0,.34-.4.08.08,0,0,1,0,0,.35.35,0,0,0,.19-.23c0-.09.1-.09.17-.06a.19.19,0,0,1,.1.07,6.88,6.88,0,0,0,0-1.24,1.26,1.26,0,0,0-.4-.63l-.09.16a3.6,3.6,0,0,1-.62.94,6.43,6.43,0,0,1-1.8.47l-.12.27C19.68,32.8,19.8,32.77,19.85,32.64Z" style="fill:#f90d56"/><path d="M22.89,29l-.24-1.08c-.11.84-.18,1.56-.2,1.89,0,.11,0,.21,0,.29l.17-.07C22.78,30,22.89,29,22.89,29Z" style="fill:#f90d56"/><polygon points="28.13 36.17 28.13 36.17 28.14 36.18 28.13 36.17" style="fill:#f90d56"/><path d="M22.81,36.22l-.05,0c-.11,0-.14-.12-.06-.21s.14-.2,0-.32a.09.09,0,0,1,0-.12.06.06,0,0,1,.09,0l.16.07a.22.22,0,0,0,.09-.08c.13-.19-.37-.11-.84-.32s0-.32.11-.44a.38.38,0,0,0,.09-.15l0,0a.81.81,0,0,1,0-.47.48.48,0,0,1,.06-.13c.06-.08,0-.15,0-.23s-.11-.06-.17-.09-.1,0-.11-.08,0-.07.08-.09.07,0,.08-.07.17-.34.26-.51v-.11a.19.19,0,0,0-.1-.07c-.07,0-.14,0-.17.06a.35.35,0,0,1-.19.23.08.08,0,0,0,0,0,.56.56,0,0,1-.34.4s-.05.07-.09.11c-.06-.17-.17-.15-.3-.1a.86.86,0,0,1-.5,0,.32.32,0,0,0,.13-.45c-.06-.13-.17-.09-.25-.15s-.07.06-.11.1-.13.18,0,.35.06.06,0,.11,0,0-.07,0-.12,0-.14-.05a.29.29,0,0,0-.31-.28s-.08-.1-.06-.11.08-.23.19-.3a.13.13,0,0,0,0-.17c0-.05-.08,0-.13,0a.12.12,0,0,0-.11.12c0,.05,0,.14-.07.14s-.08-.08-.09-.15,0-.09-.06-.1a.07.07,0,0,0-.07,0c0,.13-.17.17-.27.21l-.36.79v-.08c-.14,0-.32.27-.32.27l-.14.08v.78l-.42-.07a1.71,1.71,0,0,1,0,.31.58.58,0,0,1,.2,0,.62.62,0,0,1,.24.4s0,.08,0,.09-.15.21-.28.27-.14.17,0,.28.12.09.09.16a1.58,1.58,0,0,1-.27.38s-.11,0-.1,0a.16.16,0,0,0,.11.13c.06,0,.11,0,.11.11a.24.24,0,0,0,.2.23c.09,0,.12.08.05.15s-.12.29-.22.42-.07.11,0,.15.11,0,.14-.08a1.2,1.2,0,0,1,.63-.63s.07,0,.1,0a.08.08,0,0,1,0,.09l-.07.22c.18,0,.38-.11.49.16.06-.16.1-.29.15-.41s.09-.1.12,0a1.57,1.57,0,0,0,.29.38.26.26,0,0,0,.22.12c.27,0,.28,0,.29.29s0,.2.2.15a.34.34,0,0,1,.38,0,.19.19,0,0,0,.1,0,.62.62,0,0,1,.51.49h0a.78.78,0,0,0,.33.25.88.88,0,0,1,.35.26.29.29,0,0,0,.14.13.22.22,0,0,0,.21,0,.1.1,0,0,0,0-.12c0-.09-.11-.07-.18-.08s-.16,0-.18-.1a.49.49,0,0,0-.25-.33.37.37,0,0,1-.21-.35,1.65,1.65,0,0,0-.09-.32,1.53,1.53,0,0,0-.23-.43.33.33,0,0,0-.28-.16c-.06,0-.15,0-.12-.09s0-.17.16-.1.07,0,.08,0,.09-.09.16,0l.15.09c0-.11.06-.23,0-.28a.24.24,0,0,0-.35.09c-.1-.2-.06-.26.14-.27a1,1,0,0,1,.82.31.58.58,0,0,0,.42.17c.11,0,.22,0,.23-.15s-.1-.18-.2-.18-.31-.17-.47-.24-.06-.07-.09-.11a.08.08,0,0,1,0-.09.07.07,0,0,1,.1,0,.56.56,0,0,0,.19.07s.1,0,.13,0C22.37,36.38,22.65,36.35,22.81,36.22Z" style="fill:#f90d56"/><path d="M19.43,29.68c.06,0,.08,0,.08-.08a1,1,0,0,0,0-.46,1.51,1.51,0,0,0-.14.44S19.38,29.67,19.43,29.68Z" style="fill:#f90d56"/><path d="M18.29,33.37c.17,0,.22,0,.23-.25s-.09-.15-.16-.2-.22.22-.23.28A.15.15,0,0,0,18.29,33.37Z" style="fill:#f90d56"/><path d="M21.62,28.56a.66.66,0,0,0,.22-.43c0-.25,0-.25-.22-.27a.53.53,0,0,0-.36.14.37.37,0,0,0,0,.5A.29.29,0,0,0,21.62,28.56Z" style="fill:#f90d56"/><path d="M19.82,27.69s.08,0,.08-.06,0-.06-.08-.05a0,0,0,0,0,0,.06S19.78,27.71,19.82,27.69Z" style="fill:#f90d56"/><path d="M22,30.73a2.3,2.3,0,0,0,.21.28,1.84,1.84,0,0,0,.23-.88C22.17,30.22,21.77,30.37,22,30.73Z" style="fill:#f90d56"/><path d="M24.25,33.64a.07.07,0,0,0-.06.08.1.1,0,0,0,.1.1s0,0,0-.07A.11.11,0,0,0,24.25,33.64Z" style="fill:#f90d56"/><path d="M24.49,34.05s-.12,0-.11.06a.22.22,0,0,0,.21.17c.06,0,.09,0,.09-.08S24.59,34.06,24.49,34.05Z" style="fill:#f90d56"/><path d="M23.82,33.27c-.15,0-.27.09-.27.19a.15.15,0,0,0,.15.16.24.24,0,0,0,.24-.24C23.94,33.29,23.9,33.27,23.82,33.27Z" style="fill:#f90d56"/><polygon points="27.59 30.93 27.58 30.93 27.58 30.93 27.59 30.93" style="fill:#f90d56"/><path d="M22.86,36.25l0,0c-.17.13-.44.15.08.24l0,0A.16.16,0,0,0,22.86,36.25Z" style="fill:#f90d56"/><path d="M22.62,32.88V33h0A.1.1,0,0,0,22.62,32.88Z" style="fill:#f90d56"/><path d="M23.2,22.43a.06.06,0,0,0-.06.07s0,.05,0,.05a.05.05,0,0,0,.06-.06S23.23,22.43,23.2,22.43Z" style="fill:#f90d56"/><path d="M22.19,22.65a.12.12,0,0,0,0,.16s0,0,.07,0a.43.43,0,0,0,.14-.39C22.31,22.54,22.28,22.61,22.19,22.65Z" style="fill:#f90d56"/><path d="M67.25,12.46l6.73,0a13.06,13.06,0,0,1,9.27,3.8,12.39,12.39,0,0,1,4,9.35,13.06,13.06,0,0,1-3.91,9.51,12.81,12.81,0,0,1-9.47,4H67.22q-2.22,0-2.76-.91A4.83,4.83,0,0,1,64,35.88V15.66a10.51,10.51,0,0,1,.05-1.27,2.91,2.91,0,0,1,.35-.95Q64.92,12.46,67.25,12.46ZM78.71,30.74a6.37,6.37,0,0,0,2.11-4.89,6.57,6.57,0,0,0-2.05-4.93,6.72,6.72,0,0,0-4.82-2H70.45V32.68H74A6.8,6.8,0,0,0,78.71,30.74Z" style="fill:#f7f9e3"/><path d="M108.1,27.28A4.42,4.42,0,0,1,107,30.59a3.46,3.46,0,0,1-2.45,1.07H95.91a2,2,0,0,0,1.2,1.71,4.77,4.77,0,0,0,2.4.69,10,10,0,0,0,3.31-.44l.4-.15a3.68,3.68,0,0,1,1.46-.4q1.16,0,2,1.64a4,4,0,0,1,.47,1.67q0,3.24-7.75,3.24a11.69,11.69,0,0,1-4.78-.93,8.13,8.13,0,0,1-3.25-2.46,10.46,10.46,0,0,1-2.29-6.58,9.51,9.51,0,0,1,3-7.33,10.47,10.47,0,0,1,7.4-2.75q5.05,0,7.42,3.56A7.4,7.4,0,0,1,108.1,27.28Zm-7.67,1.07q1.38,0,1.38-1.16a1.64,1.64,0,0,0-.64-1.35,2.85,2.85,0,0,0-1.82-.51,3.68,3.68,0,0,0-2.35,1,2.71,2.71,0,0,0-1.16,2.05Z" style="fill:#f7f9e3"/><path d="M123.74,29.55l4,4.07a3.58,3.58,0,0,1,1.31,2.24,3.52,3.52,0,0,1-1.31,2.22,2.54,2.54,0,0,1-4.44,0l-4-4-4,4a3.58,3.58,0,0,1-2.2,1.31,3.65,3.65,0,0,1-2.22-1.29,3.5,3.5,0,0,1-1.33-2.22,3.58,3.58,0,0,1,1.31-2.24l4-4.07-4-4.07a3.58,3.58,0,0,1-1.31-2.24A3.56,3.56,0,0,1,110.88,21a3.64,3.64,0,0,1,2.22-1.31A3.58,3.58,0,0,1,115.3,21l4,4.07,4-4.07a2.53,2.53,0,0,1,4.44,0,3.58,3.58,0,0,1,1.31,2.24,3.58,3.58,0,0,1-1.31,2.24Z" style="fill:#f7f9e3"/><path d="M142.21,26.43l-2.36-.15v5a2.51,2.51,0,0,0,.31,1.42,1.34,1.34,0,0,0,1.16.44,11.81,11.81,0,0,1,1.31.05,2.58,2.58,0,0,1,1,.35q.84.47.84,2.44,0,2.29-1,2.8a3.35,3.35,0,0,1-1,.31,10.16,10.16,0,0,1-1.22.05,8.51,8.51,0,0,1-5.75-1.71q-2-1.71-2-5.78V26.28a9.51,9.51,0,0,1-1.49.11,1.67,1.67,0,0,1-1.33-.62,3.28,3.28,0,0,1-.53-2.11,9.09,9.09,0,0,1,.18-2.16,2,2,0,0,1,.51-1,2.23,2.23,0,0,1,1.46-.47l1.2.15V16.46a10.11,10.11,0,0,1,.05-1.24,2.29,2.29,0,0,1,.35-.87q.47-.91,2.8-.91t2.95,1.35a6.81,6.81,0,0,1,.18,1.86v3.56q1.6-.15,2.42-.15a10.35,10.35,0,0,1,1.24.05,2.92,2.92,0,0,1,1,.35q.95.47.95,2.8t-1,2.8a3.35,3.35,0,0,1-1,.31A10.58,10.58,0,0,1,142.21,26.43Z" style="fill:#f7f9e3"/><path d="M165.16,27.28a4.42,4.42,0,0,1-1.11,3.31,3.46,3.46,0,0,1-2.45,1.07H153a2,2,0,0,0,1.2,1.71,4.77,4.77,0,0,0,2.4.69,10,10,0,0,0,3.31-.44l.4-.15a3.68,3.68,0,0,1,1.46-.4q1.16,0,2,1.64a4,4,0,0,1,.47,1.67q0,3.24-7.75,3.24a11.69,11.69,0,0,1-4.78-.93,8.13,8.13,0,0,1-3.25-2.46,10.46,10.46,0,0,1-2.29-6.58,9.51,9.51,0,0,1,3-7.33,10.47,10.47,0,0,1,7.4-2.75q5.05,0,7.42,3.56A7.4,7.4,0,0,1,165.16,27.28Zm-7.67,1.07q1.38,0,1.38-1.16a1.64,1.64,0,0,0-.64-1.35,2.85,2.85,0,0,0-1.82-.51,3.68,3.68,0,0,0-2.35,1,2.71,2.71,0,0,0-1.16,2.05Z" style="fill:#f7f9e3"/><path d="M180.8,29.55l4,4.07a3.58,3.58,0,0,1,1.31,2.24,3.52,3.52,0,0,1-1.31,2.22,2.54,2.54,0,0,1-4.44,0l-4-4-4,4a3.58,3.58,0,0,1-2.2,1.31,3.65,3.65,0,0,1-2.22-1.29,3.5,3.5,0,0,1-1.33-2.22,3.58,3.58,0,0,1,1.31-2.24l4-4.07-4-4.07a3.58,3.58,0,0,1-1.31-2.24A3.56,3.56,0,0,1,167.94,21a3.64,3.64,0,0,1,2.22-1.31,3.58,3.58,0,0,1,2.2,1.31l4,4.07,4-4.07a2.53,2.53,0,0,1,4.44,0,3.58,3.58,0,0,1,1.31,2.24,3.58,3.58,0,0,1-1.31,2.24Z" style="fill:#f7f9e3"/><path d="M215.31,18.11a9.49,9.49,0,0,1,.93,4.23,9.38,9.38,0,0,1-.93,4.22,8.28,8.28,0,0,1-2.4,3,10,10,0,0,1-6.17,2.3h-4.49v4.06a10.4,10.4,0,0,1-.05,1.24,2.88,2.88,0,0,1-.34,1q-.5,1-2.8,1-2.51,0-2.94-1.33a6,6,0,0,1-.22-1.87V16a10.49,10.49,0,0,1,.05-1.24,2.88,2.88,0,0,1,.34-1q.5-1,2.8-1h7.68a10,10,0,0,1,6.14,2.3A8.25,8.25,0,0,1,215.31,18.11Zm-6.42,6.6a2.79,2.79,0,0,0,1-2.37,2.84,2.84,0,0,0-1-2.39,3.48,3.48,0,0,0-2.15-.81h-4.49V25.5h4.52A3.48,3.48,0,0,0,208.89,24.71Z" style="fill:url(#linear-gradient)"/><path d="M218.58,14.44a10.5,10.5,0,0,1,.05-1.24,3.32,3.32,0,0,1,.31-1q.5-1,2.8-1t2.73,1a2.86,2.86,0,0,1,.34,1,10.9,10.9,0,0,1,.05,1.26V31.1a3.76,3.76,0,0,0,.22,1.63q.22.34,1,.34a5.78,5.78,0,0,1,1,.05,1.81,1.81,0,0,1,.61.31q.72.47.72,2.55,0,2.26-.72,2.76-.93.65-4.45.22-2.76-.36-3.59-1.83a11.77,11.77,0,0,1-1-5.6Z" style="fill:url(#linear-gradient-2)"/><path d="M242.59,22.2q.22-2,2.84-2a7.44,7.44,0,0,1,2.08.22,1.51,1.51,0,0,1,1,.75,3.09,3.09,0,0,1,.32,1,10.41,10.41,0,0,1,.05,1.24V35.91a10.39,10.39,0,0,1-.05,1.24,3.34,3.34,0,0,1-.3,1Q248,39,246,39a4.84,4.84,0,0,1-2.62-.48,1.94,1.94,0,0,1-.77-1.42Q241.3,39,238.19,39a7.83,7.83,0,0,1-5.76-2.84,9.45,9.45,0,0,1,0-13.15,8,8,0,0,1,5.87-2.82,5.59,5.59,0,0,1,2.22.43,4.94,4.94,0,0,1,1.4.81A5,5,0,0,1,242.59,22.2Zm-6.53,7.46A3,3,0,0,0,237,31.8a3,3,0,0,0,2.26,1,2.86,2.86,0,0,0,2.21-1,3.11,3.11,0,0,0,.88-2.14,3.32,3.32,0,0,0-.84-2.17,2.8,2.8,0,0,0-2.26-1,2.91,2.91,0,0,0-2.3,1A3.26,3.26,0,0,0,236.06,29.66Z" style="fill:url(#linear-gradient-3)"/><path d="M268.57,20.4q2.12.93,2.12,2.26a2.69,2.69,0,0,1-.29,1.22,5.92,5.92,0,0,0-.29.61l-9.4,21q-.29.68-.48,1a2.22,2.22,0,0,1-.63.68,1.75,1.75,0,0,1-1.08.32,5.4,5.4,0,0,1-1.9-.54q-2.12-.93-2.12-2.22,0-.86,3.45-8.22l-7.14-12a4,4,0,0,1-.72-1.76q0-1.15,1.94-2.3a4.21,4.21,0,0,1,1.9-.72,2,2,0,0,1,1.11.29,2.17,2.17,0,0,1,.63.59q.2.31,2,3.34T261,29.66q.18-.57,1.94-4.43t1.88-4.11a3.61,3.61,0,0,1,.41-.61,1.55,1.55,0,0,1,1.31-.61A5.12,5.12,0,0,1,268.57,20.4Z" style="fill:url(#linear-gradient-4)"/><path d="M283.25,34.11h-8.54q-2,0-2.4-1.22a6.29,6.29,0,0,1-.18-1.65,5,5,0,0,1,.22-1.61,1.49,1.49,0,0,1,.68-.86,3.88,3.88,0,0,1,1.72-.32h8.54q2,0,2.37,1.18a5.31,5.31,0,0,1,.22,1.65,5.59,5.59,0,0,1-.2,1.63,1.47,1.47,0,0,1-.63.88A4.08,4.08,0,0,1,283.25,34.11Z" style="fill:url(#linear-gradient-5)"/><path d="M306.44,27.38a4.36,4.36,0,0,1-1.09,3.27,3.42,3.42,0,0,1-2.42,1.06h-8.51a2,2,0,0,0,1.18,1.69,4.71,4.71,0,0,0,2.37.68,9.88,9.88,0,0,0,3.27-.43l.39-.14a3.62,3.62,0,0,1,1.44-.39q1.15,0,2,1.61a4,4,0,0,1,.47,1.65q0,3.19-7.64,3.19a11.53,11.53,0,0,1-4.72-.92,8,8,0,0,1-3.21-2.42,10.32,10.32,0,0,1-2.26-6.5,9.38,9.38,0,0,1,2.92-7.23,10.34,10.34,0,0,1,7.3-2.71q5,0,7.32,3.52A7.3,7.3,0,0,1,306.44,27.38Zm-7.57,1.06q1.36,0,1.36-1.15A1.62,1.62,0,0,0,299.6,26a2.81,2.81,0,0,0-1.79-.5,3.63,3.63,0,0,0-2.31,1,2.67,2.67,0,0,0-1.15,2Z" style="fill:url(#linear-gradient-6)"/><path d="M321.62,20.4a2.43,2.43,0,0,1,1.13.74,2.53,2.53,0,0,1,.45,1.67,5.68,5.68,0,0,1-.68,2.51,2.14,2.14,0,0,1-2,1.36,2.8,2.8,0,0,1-1.24-.29,3.6,3.6,0,0,0-1.56-.29,2.83,2.83,0,0,0-1.81.68,2.06,2.06,0,0,0-.84,1.65V36a10.39,10.39,0,0,1-.05,1.24,2.89,2.89,0,0,1-.34,1q-.54.93-2.8.93a4,4,0,0,1-2.48-.61,2.15,2.15,0,0,1-.65-1.54V23.31a10.5,10.5,0,0,1,.05-1.24,2.93,2.93,0,0,1,.31-.91q.5-1,2.8-1t2.69.83A2.07,2.07,0,0,1,315,22.2a6,6,0,0,1,.52-.61,6.67,6.67,0,0,1,1.45-1,4.19,4.19,0,0,1,2-.61,9.45,9.45,0,0,1,1.42.09A8.69,8.69,0,0,1,321.62,20.4Z" style="fill:url(#linear-gradient-7)"/><path d="M95.58,23.62c.36.19.54-.09.76-.21a.44.44,0,0,0,.13-.56,1.39,1.39,0,0,1,.29-1.46c-.08,0-.11,0-.13,0a7.15,7.15,0,0,1-1.54,1c-.07,0-.07.11-.09.18C94.89,23.06,95.08,23.35,95.58,23.62Z" style="fill:#f90d56"/><path d="M81.83,16.92c.44,0,.65.2.66.62a.58.58,0,0,1-.62.57c-.09,0-.22-.08-.26,0s.09.15.16.21a1.53,1.53,0,0,1,.5.85.38.38,0,0,1-.29.42,1.81,1.81,0,0,1-.29.06c-.15,0-.21.06-.12.23a.59.59,0,0,1-.27.89,1.75,1.75,0,0,0-.85.81s0,.07-.05.07c-.41,0-.44.35-.51.67s-.28.15-.44.16a.54.54,0,0,1-.55-.6c0-.07.07-.16-.06-.19s-.3-.21-.44-.33a.57.57,0,0,1-.2-.66.83.83,0,0,1,.77-.4c.24,0,.49,0,.64.31a.28.28,0,0,0,.37.09c.15-.08,0-.18,0-.27a.48.48,0,0,1,.12-.52c.14-.13.22-.32.43-.39s.1-.16,0-.26c-.23-.3-.24-.42,0-.73a.33.33,0,0,0,.06-.39c-.08-.19.13-.36.31-.43a.46.46,0,0,0,.34-.41C81.27,17,81.46,16.92,81.83,16.92Z" style="fill:#f90d56"/><path d="M57.81,30.65a.52.52,0,0,0-.58.23c-.19.25-.48.42-.53.77a.53.53,0,0,0,0,.45.43.43,0,0,1,0,.4.7.7,0,0,1-.55.52c-.34,0-.67.13-.91-.28s-.31-.69,0-.85a6.37,6.37,0,0,0,.89-.73c.34-.27.73-.47,1.09-.71a2.08,2.08,0,0,1,.47-.17.36.36,0,0,1,.43.07.17.17,0,0,1,0,.21C58.11,30.72,58,30.63,57.81,30.65Z" style="fill:#f90d56"/><path d="M72.2,47.5c.2-.23.26-.58.62-.68a1.44,1.44,0,0,1,1.11.14c.22.13.22.63.06.93a.76.76,0,0,1-.88.48" style="fill:#f90d56"/><path d="M85.09,16.15a.73.73,0,0,1,.54.21,2.45,2.45,0,0,0,.5.33c.24.12.29.3.11.49a2.25,2.25,0,0,1-.89.53.87.87,0,0,1-.92-.22.62.62,0,0,1-.15-.87A.91.91,0,0,1,85.09,16.15Z" style="fill:#f90d56"/><path d="M81.23,28.08a1.07,1.07,0,0,1-.94-.71.65.65,0,0,1,.73-.78,1.11,1.11,0,0,1,.81.46.43.43,0,0,1-.06.62C81.61,27.85,81.52,28.14,81.23,28.08Z" style="fill:#f90d56"/><path d="M83.45,43.41c-.46,0-.54-.09-.49-.51a1.75,1.75,0,0,1,.14-.54.39.39,0,0,1,.63-.17c.22.14.26.39.36.59A.13.13,0,0,1,84,43a.23.23,0,0,0-.17.19C83.79,43.4,83.62,43.43,83.45,43.41Z" style="fill:#f90d56"/><path d="M73.05,35.55a.58.58,0,0,1-.63-.5A.61.61,0,0,1,73,34.4a.73.73,0,0,1,.63.56A.67.67,0,0,1,73.05,35.55Z" style="fill:#f90d56"/><path d="M54,39.86a.41.41,0,0,1,.35.31.78.78,0,0,1-.51.75.63.63,0,0,1-.65-.23c-.13-.19,0-.36.08-.52A.89.89,0,0,1,54,39.86Z" style="fill:#f90d56"/><path d="M86.38,19.39a.67.67,0,0,1-.73-.08c-.26-.21-.29-.39-.11-.63a.56.56,0,0,1,.74-.16c.21.15.25.43.05.54S86.08,19.29,86.38,19.39Z" style="fill:#f90d56"/><path d="M62,36.21a.43.43,0,1,1-.86,0,.33.33,0,0,1,.34-.36C61.79,35.8,62,36,62,36.21Z" style="fill:#f90d56"/><path d="M82.63,35.4c-.16-.06-.3-.26-.45-.43a.19.19,0,0,1,0-.25.39.39,0,0,1,.42,0A.84.84,0,0,1,83,35C83.09,35.29,83,35.43,82.63,35.4Z" style="fill:#f90d56"/><path d="M58.58,17.47a2.54,2.54,0,0,1,.91.4.22.22,0,0,1,.07.29c-.07.12-.2.08-.29,0a1.87,1.87,0,0,0-.61-.28c-.11,0-.16-.14-.21-.23s-.1-.11,0-.18S58.52,17.46,58.58,17.47Z" style="fill:#f90d56"/><path d="M82.76,34.45a1.57,1.57,0,0,1-.68-.62.21.21,0,0,1,.11-.22.19.19,0,0,1,.27,0c.16.17.32.36.48.54a.19.19,0,0,1,0,.22C82.91,34.47,82.82,34.45,82.76,34.45Z" style="fill:#f90d56"/><path d="M82.86,45.06c-.14,0-.25,0-.25-.19s.26-.54.39-.54a.46.46,0,0,1,.36.44C83.31,45.08,83,45,82.86,45.06Z" style="fill:#f90d56"/><path d="M62.09,35.75c-.2,0-.31-.05-.31-.25s.08-.26.24-.26a.28.28,0,0,1,.31.28C62.35,35.74,62.19,35.73,62.09,35.75Z" style="fill:#f90d56"/><path d="M79.6,18.58c.2,0,.27.1.29.26a.21.21,0,0,1-.23.25.25.25,0,0,1-.29-.26C79.36,18.66,79.44,18.57,79.6,18.58Z" style="fill:#f90d56"/><path d="M83,18.64c0,.15-.13.16-.23.16s-.2,0-.17-.17,0-.28.21-.27S82.94,18.51,83,18.64Z" style="fill:#f90d56"/><path d="M73.42,11.11c-.11,0-.23,0-.21-.12s.14-.15.25-.15.2,0,.19.13S73.48,11.07,73.42,11.11Z" style="fill:#f90d56"/><path d="M71.28,37.1c0,.11-.07.2-.2.21a.16.16,0,0,1-.2-.17c0-.14.09-.19.21-.19A.16.16,0,0,1,71.28,37.1Z" style="fill:#f90d56"/><path d="M70.35,39.67c-.08,0,0,.1,0,.15,0,.23-.09.22-.24.16s-.16-.1-.13-.2.12-.08.2-.08.15.08.21,0Z" style="fill:#f90d56"/><path d="M83.83,33.53a.22.22,0,0,1-.15-.23c0-.09,0-.2.14-.19s.15.13.13.22S83.94,33.51,83.83,33.53Z" style="fill:#f90d56"/><path d="M81.78,35.17c0-.06,0-.16.07-.19a.1.1,0,0,1,.11.07c.05.13-.05.18-.13.24h0a.1.1,0,0,0-.06-.13Z" style="fill:#f90d56"/><path d="M80.76,25.48l.05,0,0,0,0-.07Z" style="fill:#f90d56"/><path d="M69.87,11.78h-.11a.42.42,0,0,0-.44.33.48.48,0,0,0,.24.5c.17.12.36,0,.47-.17,0,0,.07,0,.08-.08s.21-.24.12-.42S70,11.8,69.87,11.78Z" style="fill:#f90d56"/><path d="M76,10.38c-.32,0-.44.12-.44.42s.21.51.59.51a.62.62,0,0,0,.65-.51C76.77,10.54,76.4,10.42,76,10.38Zm1.13,1.37c.27,0,.47,0,.47-.27,0-.1-.34-.48-.41-.44s-.35.17-.34.43S77,11.76,77.1,11.75Z" style="fill:#f90d56"/><path d="M70.16,20.31a1.22,1.22,0,0,1-.41.79A.54.54,0,0,1,69,21a.68.68,0,0,1,.08-.93,1,1,0,0,1,.67-.25C70.12,19.84,70.16,19.86,70.16,20.31Z" style="fill:#f90d56"/><path d="M64,29.52c0,.37-.12.47-.43.46a.27.27,0,0,1-.29-.32c0-.11.37-.55.42-.51S64.09,29.29,64,29.52Z" style="fill:#f90d56"/><path d="M73.58,30.44a.27.27,0,0,1-.28-.29c0-.2.23-.36.5-.36s.23.05.23.21A.44.44,0,0,1,73.58,30.44Z" style="fill:#f90d56"/><path d="M65.84,22.17a1.85,1.85,0,0,1,0,.85c0,.08,0,.16-.15.15s-.11-.11-.11-.19A2.8,2.8,0,0,1,65.84,22.17Z" style="fill:#f90d56"/><path d="M75.39,31.52c0,.12-.06.16-.17.15a.4.4,0,0,1-.39-.31c0-.11.11-.12.2-.12S75.37,31.31,75.39,31.52Z" style="fill:#f90d56"/><path d="M71.1,9.76a.79.79,0,0,1-.25.71s-.11,0-.13,0a.22.22,0,0,1,.08-.29C71,10.1,71,10,71.1,9.76Z" style="fill:#f90d56"/><path d="M74.6,30.48a.21.21,0,0,1,.15.22c0,.06,0,.13-.09.12a.18.18,0,0,1-.18-.19A.13.13,0,0,1,74.6,30.48Z" style="fill:#f90d56"/><path d="M72.74,9.89a.1.1,0,0,1-.11.1c-.06,0-.08,0-.09-.1a.11.11,0,0,1,.12-.13C72.72,9.76,72.74,9.81,72.74,9.89Z" style="fill:#f90d56"/><path d="M66.42,19.5c-.08,0-.09,0-.1-.09a.09.09,0,0,1,.09-.12c.07,0,.14,0,.15.09S66.47,19.46,66.42,19.5Z" style="fill:#f90d56"/><path d="M81.77,35.16a.1.1,0,0,1,.06.13S81.72,35.24,81.77,35.16Z" style="fill:#f90d56"/><path d="M68.45,27.14c0-.07,0-.1,0-.13a.38.38,0,0,1,0-.49.35.35,0,0,1,.44,0,.43.43,0,0,1,0,.52c-.11.15-.1.2,0,.36a.72.72,0,0,1,0,.73.6.6,0,0,1-.71.38.69.69,0,0,1-.58-.45.44.44,0,0,1,.13-.53C68,27.35,68.17,27.13,68.45,27.14Z" style="fill:#f90d56"/><path d="M65,28.09c.06-.18.1-.39.34-.43s.38.28.36.44-.29.43-.41.4S65,28.28,65,28.09Z" style="fill:#f90d56"/><path d="M71.86,27.61c0,.19-.33.46-.49.42s-.12-.08-.08-.15a.54.54,0,0,1,.43-.35C71.79,27.53,71.85,27.56,71.86,27.61Z" style="fill:#f90d56"/><path d="M67.61,27c0,.16,0,.28-.2.29s-.16-.07-.15-.17,0-.33.2-.35S67.59,26.94,67.61,27Z" style="fill:#f90d56"/><path d="M69.87,11.78c.12,0,.28,0,.37.15s-.05.29-.12.42-.06,0-.08.08c-.11.18-.3.29-.47.17a.48.48,0,0,1-.24-.5.42.42,0,0,1,.44-.33Z" style="fill:#f90d56"/><path d="M76,10.38c.43,0,.79.16.8.41a.62.62,0,0,1-.65.51c-.38,0-.58-.18-.59-.51S75.65,10.38,76,10.38Z" style="fill:#f90d56"/><path d="M77.1,11.75c-.12,0-.26,0-.27-.28s.18-.33.34-.43.41.34.41.44C77.58,11.76,77.37,11.74,77.1,11.75Z" style="fill:#f90d56"/><path d="M71.82,34a.16.16,0,0,0,0,.22c.19.22.12.41-.06.6s-.1.3.11.38l.1,0a.37.37,0,0,0,.14-.49c-.28-.62,0-.52.18-.63A1.22,1.22,0,0,1,72,34,.12.12,0,0,0,71.82,34Z" style="fill:#f90d56"/><path d="M71.27,32.05s.33-2.08.29-2.26a4.1,4.1,0,0,1,0-.5c-.16.31-.35.62-.48.94,0,.06-.1.09-.16.13s-.19,0-.15.17.13.11.2.15.34-.13.31.16c0,.14.1.28,0,.43a.89.89,0,0,0-.11.24,1.49,1.49,0,0,0,0,.87l.09-.09A.79.79,0,0,0,71.27,32.05Z" style="fill:#f90d56"/><path d="M66.46,28.63a.13.13,0,0,1,.14-.09c.1,0,.1.11.11.19s0,.27.17.27.12-.16.13-.26a.22.22,0,0,1,.2-.22c.09,0,.19,0,.24.07a.23.23,0,0,1-.06.32c-.2.13-.11.43-.34.55,0,0,0,.2.1.2a.54.54,0,0,1,.58.51c0,.12.15.1.25.1s.12,0,.13-.05,0-.15-.09-.2c-.28-.3-.29-.3,0-.65.06-.08.12-.24.19-.18s.35,0,.46.27a.58.58,0,0,1-.23.84,1.59,1.59,0,0,0,.93,0c.24-.09.45-.13.56.19.07-.09.1-.18.16-.21a1,1,0,0,0,.63-.73.15.15,0,0,1,.07-.09.64.64,0,0,0,.34-.42c0-.16.18-.17.32-.12a.36.36,0,0,1,.18.13,12.72,12.72,0,0,0,0-2.29,2.34,2.34,0,0,0-.74-1.16l-.17.29a6.65,6.65,0,0,1-1.14,1.73c-.53.47-3.32.86-3.32.86L66,29C66.15,28.94,66.37,28.87,66.46,28.63Z" style="fill:#f90d56"/><path d="M72.09,22l-.44-2c-.21,1.54-.34,2.88-.37,3.49,0,.2,0,.38,0,.54a2.59,2.59,0,0,0,.31-.12C71.88,23.71,72.09,22,72.09,22Z" style="fill:#f90d56"/><polygon points="81.77 35.16 81.77 35.16 81.78 35.17 81.77 35.16" style="fill:#f90d56"/><path d="M71.95,35.26l-.1,0c-.21-.08-.27-.21-.11-.38s.25-.37.06-.6a.16.16,0,0,1,0-.22A.12.12,0,0,1,72,34a1.22,1.22,0,0,0,.29.13.4.4,0,0,0,.16-.14c.23-.35-.69-.21-1.55-.6s0-.6.2-.81a.7.7,0,0,0,.17-.28l-.09.09a1.49,1.49,0,0,1,0-.87.89.89,0,0,1,.11-.24c.11-.14,0-.29,0-.43,0-.3-.21-.1-.31-.16s-.18,0-.2-.15.09-.13.15-.17.13-.07.16-.13c.13-.33.32-.63.48-.94v-.21A.36.36,0,0,0,71.4,29c-.14-.05-.27,0-.32.12a.64.64,0,0,1-.34.42.15.15,0,0,0-.07.09,1,1,0,0,1-.63.73c-.06,0-.1.12-.16.21-.11-.31-.32-.28-.56-.19a1.59,1.59,0,0,1-.93,0,.58.58,0,0,0,.23-.84c-.1-.24-.32-.16-.46-.27s-.14.11-.19.18c-.25.34-.25.34,0,.65,0,.05.12.12.09.2s-.08,0-.13.05-.23,0-.25-.1a.54.54,0,0,0-.58-.51c-.09,0-.15-.18-.1-.2.24-.11.14-.42.34-.55a.23.23,0,0,0,.06-.32c0-.1-.15-.09-.24-.07a.22.22,0,0,0-.2.22c0,.1,0,.26-.13.26s-.16-.15-.17-.27,0-.17-.11-.19a.13.13,0,0,0-.14.09c-.09.24-.31.31-.51.39l-.67,1.46v-.15c-.25,0-.59.49-.59.49l-.25.14v1.43l-.78-.13a3.17,3.17,0,0,1,0,.57,1.07,1.07,0,0,1,.37.07,1.14,1.14,0,0,1,.45.75c0,.06,0,.15,0,.17-.21.12-.28.39-.53.5s-.27.32-.08.52.22.17.16.29a2.93,2.93,0,0,1-.5.69c-.06.06-.21-.08-.19.09a.3.3,0,0,0,.2.24c.11,0,.2.07.21.21a.45.45,0,0,0,.37.42c.17,0,.22.15.1.28s-.22.54-.41.77c-.06.07-.13.21,0,.28s.2,0,.25-.14a2.22,2.22,0,0,1,1.17-1.16c.07,0,.13-.06.19,0a.14.14,0,0,1,0,.16c0,.13-.08.26-.14.41.34,0,.7-.2.91.29.11-.3.19-.53.28-.75s.16-.18.23,0a2.9,2.9,0,0,0,.54.7.49.49,0,0,0,.41.22c.49,0,.51,0,.53.53s0,.37.36.27a.63.63,0,0,1,.69.09.36.36,0,0,0,.19.08,1.14,1.14,0,0,1,.95.9h0a1.44,1.44,0,0,0,.6.46,1.62,1.62,0,0,1,.65.49.53.53,0,0,0,.26.24.4.4,0,0,0,.39,0,.19.19,0,0,0,.06-.22c-.06-.16-.2-.13-.33-.14s-.29,0-.33-.18a.9.9,0,0,0-.46-.61.69.69,0,0,1-.38-.64,3.05,3.05,0,0,0-.17-.58,2.82,2.82,0,0,0-.43-.8.61.61,0,0,0-.52-.3c-.1,0-.27,0-.22-.17s.08-.31.29-.18.14,0,.16-.06.17-.16.3-.07a3.07,3.07,0,0,0,.28.16c.06-.21.11-.43-.08-.52a.45.45,0,0,0-.64.17c-.18-.38-.11-.47.25-.51a1.88,1.88,0,0,1,1.51.57,1.07,1.07,0,0,0,.77.32c.19,0,.4,0,.43-.27s-.19-.34-.37-.34c-.37,0-.57-.31-.87-.44-.07,0-.12-.13-.17-.2a.14.14,0,0,1,0-.17.14.14,0,0,1,.19,0,1,1,0,0,0,.36.14c.09,0,.18,0,.24,0C71.12,35.54,71.63,35.5,71.95,35.26Z" style="fill:#f90d56"/><path d="M65.7,23.16c.1,0,.14-.07.15-.15a1.85,1.85,0,0,0,0-.85,2.79,2.79,0,0,0-.25.8C65.59,23.05,65.6,23.15,65.7,23.16Z" style="fill:#f90d56"/><path d="M63.59,30c.31,0,.41-.09.43-.46s-.17-.27-.3-.38-.41.41-.42.51A.27.27,0,0,0,63.59,30Z" style="fill:#f90d56"/><path d="M69.75,21.11a1.22,1.22,0,0,0,.41-.79c0-.45,0-.47-.41-.5a1,1,0,0,0-.67.25A.68.68,0,0,0,69,21,.54.54,0,0,0,69.75,21.11Z" style="fill:#f90d56"/><path d="M66.42,19.5c.05,0,.15,0,.14-.12s-.08-.1-.15-.09a.09.09,0,0,0-.09.12C66.33,19.46,66.34,19.52,66.42,19.5Z" style="fill:#f90d56"/><path d="M70.44,25.11a4.24,4.24,0,0,0,.38.52A3.39,3.39,0,0,0,71.25,24C70.76,24.17,70,24.44,70.44,25.11Z" style="fill:#f90d56"/><path d="M74.6,30.48a.13.13,0,0,0-.11.15.18.18,0,0,0,.18.19c.08,0,.09-.06.09-.12A.21.21,0,0,0,74.6,30.48Z" style="fill:#f90d56"/><path d="M75,31.25c-.09,0-.22,0-.2.12a.4.4,0,0,0,.39.31c.1,0,.17,0,.17-.15S75.22,31.26,75,31.25Z" style="fill:#f90d56"/><path d="M73.8,29.79c-.27,0-.5.16-.5.36a.27.27,0,0,0,.28.29A.44.44,0,0,0,74,30C74,29.84,73.95,29.79,73.8,29.79Z" style="fill:#f90d56"/><polygon points="80.76 25.47 80.76 25.47 80.76 25.48 80.76 25.47" style="fill:#f90d56"/><path d="M72,35.3l-.09,0c-.31.24-.82.28.15.44a.17.17,0,0,0,0-.07A.29.29,0,0,0,72,35.3Z" style="fill:#f90d56"/><path d="M71.58,29.08v.19A.18.18,0,0,0,71.58,29.08Z" style="fill:#f90d56"/><path d="M72.66,9.77a.11.11,0,0,0-.12.13c0,.05,0,.1.09.1a.1.1,0,0,0,.11-.1C72.74,9.81,72.72,9.76,72.66,9.77Z" style="fill:#f90d56"/><path d="M70.8,10.18a.22.22,0,0,0-.08.29c0,.06.09,0,.13,0a.79.79,0,0,0,.25-.71C71,10,71,10.1,70.8,10.18Z" style="fill:#f90d56"/></svg>